<mxfile host="app.diagrams.net" modified="2024-04-01T16:57:33.545Z" agent="Mozilla/5.0 (Windows NT 10.0; Win64; x64; rv:124.0) Gecko/20100101 Firefox/124.0" etag="SeabvZgeaCyZgFG7TBjH" version="24.2.1" type="github">
  <diagram name="Page-1" id="iaQJdXUveJw6DZ0XeHrt">
    <mxGraphModel dx="794" dy="461" grid="1" gridSize="10" guides="1" tooltips="1" connect="1" arrows="1" fold="1" page="1" pageScale="1" pageWidth="850" pageHeight="1100" math="0" shadow="0">
      <root>
        <mxCell id="0" />
        <mxCell id="1" parent="0" />
        <mxCell id="7JURMkcKfAs1Fi5uzstL-1" value="" style="shape=stencil(lVjLUhtBDPwaX1WS5n0m5D+owgRXCKaAvP4+2jiz7GjYrnBzjDoeSd1SzxzC1cv9zdPxoPzy+nz+evx5un29P4RPB9XT4/3x+fRqnw7h+hCu7s7Pxy/P5++Pt5d/P90skcunb+cfy//w64ITZmJeYMq/L18FiuHvF58vgIfT4wbQGtU6xGeqAuIrhTbESyBFgERlPJA04gIASlUHgEYqbR9QGzUZU2bKEQAyFQfIlNEvRKpj0tHKDJKu6pOOAR+Je5dWQCEFVSrFHykJCWh0ib7RycqaAUCoxRFQiUGVcqU25pAF5pATZce9SCEBgFIcy5oLBZB0MqqNORQmAX1IiXQsawmw01b1fydeAUZ48AvWV3EAkxToQ1RK45GMLKXuA0L1I6BaDgoANiJGPVQrAwCodTqPAGMr6IMp2HHJRBsYAIR45FLD9JZCeTySzZEMchD1OdikCqBxwqRjWVuhhAB9aq3xjTJgN1NLPp5Bjbgfd423xgNe8FTSTA3omb12rEAV5GvnGdXc8ICRLqw1PlAF9RGqxcdDllKdGNEAhYIfkA1L3wZq8PERzRbK7OujoL+ZRH39Bc3fPgo3/Q3g/PkdPkdQ/9S7ueFbBHxLxBOf0XliF/gmvsJ+ufpszM8OIUSmHwDx0o3NJl6hgJNOBQIJ2yqaGoA2wWTtrMFIANxn8pZAcKAUJ7CIZy4lR4jQ9/NO/X19FA6g0MfrNh6tVkqTIBVt1g/G50kA0kfM3sZwps62XgQJyyQxs6oVAZqf6ba5M1rEOv1CoAZErOuOWAHS/fn7TZO+2Fd/0+DaCKmLcAXYXgW20by3OI+WoM+MsctqBeBNEOuUA2OfKd5MmDFFNwrzmXHMwaxvBTmY987OXCu8d5n3dmo2MwzdePTUSBmOI0vR6T8FCCiTY0kMHYu1yVkoc8/o7mhEkPEX7N6FjKlRTcelHxq8qBmZdUza7o6oDyYXdgCFa61Oe1DtygDKat7bLUKbzAFItJmARmrY4ElgcC9WelzlNtoyuvSvQ+XtVSEAOSxOaMw59MG2F+8UrXByW3weeWG7C2xyW5Q8np/h5rH4rC4+ovNkzyJ8LV2cenLxyOmYkXD5cjdju6864uIVCNPiG7t4NO4W5+dejUhRvo2KI1x/49mLb54P6Kr14Wey/wDYh7dXubvTw8PlUW/7d/+KZ19dXgDD9R8=);lineShape=1;strokeColor=default;" vertex="1" parent="1">
          <mxGeometry x="128.866248464175" y="145.7972210921697" width="76.33599064138366" height="68.25444720771418" as="geometry" />
        </mxCell>
        <mxCell id="7JURMkcKfAs1Fi5uzstL-2" value="" style="shape=stencil(lVfLctswDPwaXzEkCPBxTtP/yEycxtM0zjhOH39fqB4qImRtxzfZwgoEsAuAu3T3/vzwtt9xeD+fjt/3vw6P5+dd+rJjPrw+70+Hsz3t0v0u3T0dT/tvp+PH6+Pl99vDZDk9/Tj+nL7w+4JLpG0Ccfhz+UOFlP/98/Vi/3J4XdhX4jraV9KybR+ZRAdADtQQIPfXM4Cp5W0AM8U0ApRCAACLIY+AQpK2AUmo8AioVEGSJFJ2HhpVEINYEse0lkAKYlALkT0gyzYgRwrpFg85UxQPCHEbYK9ZfJYYBF2U2FU6koAjFcvSGIOUnrfrZGUfQ2JiBYBMPKY1Vsqg0k1JxsIFyL2WqRZnj5jU6ioCKkA9rXl7LE+zL6P+o1BuQJ5hDrAjOJICXkwuRjHYmRLKUaMwnskEmACRLElh9JDsE6DMVgUXtSm2AiJZmZMDMCnyIF5u5gESg6mOgFS6z+uASG3F7YABMnpg7W1qC5BGrpoYIPmir3ScBbgVtLo+2eV03T5RHtXGmBjaO9an2hg0euOFeHvI1EJF3Hmg2mxsuBZJFSshs0+oooQ2amOCYiPG4qwjse1IkEWtZ3xBO8Exi+NpoYwApddoIZ2IANpn61KcWM03ApKfVKJU0BxpfidRowpgXtVOnMVOUkHhauxJnBt9JAaFK8VvPRYV8jDtByM1rPao0uuNYTEsNpcSXrkAQehK0BMfgYdpsco3ASyvwQMySJPNJhUPaADAc2EXALRyT/PVxVBg27AV2pda+xZ+HTBP8BnAcKaXPl5n8tlkQDH7vloTFFz0C7dtcgIavTUI9/0AG3HwRbbVEhF1tdoWgTUOq2U7Ql6vdipTfwOUCF5pWXqGN+z9JcwyBvIfenSLWx7azOfoZvsM92xbC8bz2K2zgvbIfms2e/T9W2+1/7e3h88r9NPh5eVyA1++91du++tyXU/3fwE=);lineShape=1;strokeColor=default;" vertex="1" parent="1">
          <mxGeometry x="153.14917133090762" y="171.34982111876775" width="61.639807449709224" height="12.527215377009384" as="geometry" />
        </mxCell>
        <mxCell id="7JURMkcKfAs1Fi5uzstL-3" value="" style="shape=stencil(lVnLbhw5DPyauRKi3jrn8R8B4sSDOHbgOMnu329pB2pL1EwZuY3bYkski8Wi+hTe/bz/9OPu5N3Pl+enb3d/zp9f7k/h/cn78+P93fP5Bb9O4cMpvPvy9Hz39fnp1+Pny98/PvWV/df3p9/9Df9c7GqW4LuVd/9enkQp7f8HHy/rH86P8/ooLi7rm3hP1rvxurFes+R626BUaboYeCc5EAO8zxjAhUgMouh6JF+lKjFQ8WUxCF5quW2Qi7SwGmRpmRhEqSYLjvqQVaIxgNPEh4QjGYMqhSQuHUEcBslLJIlLKmHNQ8oSSeJwAM2LQXaiZIeYxK2Jy4HmIXpxaTUoksiRkCbjA8DiEzFQySs0SpNGfPDFHqkmGlYPqK1ONyfR3TbQJtmtBgA8gYZuYW1FPIlSk7QGSZ0TR44UNheOV1xdf7ztWJ/Ek2rQAZspRImcJ9mkvZEDdbZ4QGuVRKhz3OpBSZIIUhEib6CNNBKXA0hxPRI4hBFxgItr1jqHsPJEVA0BgJpJVGMZuJwIIJHiAcWkNW+vT26xXl0Tl8LA7nWDZqsNLMUShzTZHZRCu+LfxgdOYrXaTIMHG4EGqtc0k9gkEmiguLxxOomyHdpoHRMRe9KuYFBXpwE+Bo2JICZ8exKmfqZ1ixKkkVS3Okp+YmJlYQITm6IOQxhcz5wfveMwKBK4QV2PBJ6pDBthIyYUBFNXoO5gfYik5CD3TFfHIaneq4OGJoPE8uBsd6hHB7tu4K0M6GFg6AtW+yBKlaCv9z+zQxZP+g8MTI0i04V1xGD1W218B0R9zXTv6ixKOsrlMFDKAjhA3Awag0YZHWo2YGhNUrI1oGg9OtTkdCZR6gW5hTUQJuvYXJ2GV4yYYJCNHIME5CUaNvDRsMaNNcLI/a0S1a3i2PCAEjXc2r1iTrcRk5kEGFXqRgIIAy9Rq3IjpUoYtE2SsfEEJWrzUKj++WuDztXGaUfHxLrNM1ATyvKAxr/u0JsiI+NNzvS+y0lAV/Chs0eWOGd96EMc73GGyDBpsgIqxQ7TkJVMnZRN3XcdSiouH1CbnGas0WdjE1YdmuvWqGsTFwZYrktjkIrJQ6YTDcS3VVh14Pe6vI+b/AkjldcnjmqjVCqdBzCIGnmPmo4krBiCzE1OZ282ZulI0zy5shK1Nz+Na2/1m/optODgQto0YiQcgFHUiMpS6Q4+W/IunkqNoDYNgBJTcECGN9gDebPRsmwXOY1e2UU3gDMNHEyrx0PgTXdLno+WJqwYmtj4gCHMsEzkYMUgmc1Y5vh1Vx4uTnd8rOuChMw1S79FZJeCYfDicU/ZxrB53SDZmcknSWyHuu2g9NYB2DQKTkG2hItLtAOKOpq4gnowsyi9KkJ5BeMzvezCenMXpVSYYIg0HONGkG/dd8dm1rNiqzpg+brevaFwnV3PNEaw8tMNSXBLrm7npwNlsrLKcTmcxkzxGn82TtZsucXzeGYrVXkbrNtNHb9m+OvvJW+ux4/XjzNfzg8Pl2878//txxw8unwICh/+Aw==);lineShape=1;strokeColor=default;" vertex="1" parent="1">
          <mxGeometry x="190.2410583997273" y="149.86888755542975" width="49.49516064826116" height="61.827710663898756" as="geometry" />
        </mxCell>
        <mxCell id="7JURMkcKfAs1Fi5uzstL-4" value="" style="shape=stencil(lVbLbttADPwaXYkl931O0/8IEKcW6tqB47TN34eqsLa4sqbITZaHWg45w+XgH972T6+7Qdzb5Xz6ufszPl/2g/82iIzH/e48XvRp8I+Df3g5nXc/zqf34/P8+/VpQk5Pv06/py/8neMcRZmCxH3MLypTTP/efJ/xh/G4wCdy1eCLUCrbeA7k2QSkQilsBwhTdiYgRqooIFOKJiDomSDAMwWbkg8UHQgoVIIJkEiRtwNCIrYBnCiClGIhny3p9uJ+F5iq5ezJCcBnkmQTIvHb+Owpe4N3JKBCxfVNc+QiwGcKocNnwLf6lu61A01W9/H6/WI1QaECfO355qbzTbytZ6UC6qn5RNsvllaBLcK+U1CgBE7QikbLWCXHwJjaspL6gAo0pJooqxMyOEFF5+2s4IgDpIlmQdqBNqttgm0bMyUwvaJStDotVEFGMbeiX6cXCdB1cs3mN19mhFebdwQgPnOT8c03AeFXc0V9iXwcSXo8lCm34xf5I1+m/vu+DY4tn4l09WfgS3ZXfosGA1HX0t9/k4JQRl8NUJ956zOdLRXNXjWmpeAzJK0iSlYUQcc9tg1b1cXaWN2/zyoFyyELMboxK1V7xZYEnaw3sFjSNbRxcz9A+htHtRXQCa5fRHQoZzArtE1staq9L8BsquWuSirfBFLiuhqQDvtTB6hwf0RFhmDiuMoJnJB7Q0+kgVpDP8CmqgK8Li5djRLcdFw/8CZdgO+v/D+tDoDvV/ff/+P14bZsv4yHw7yrL//vl3N9NS/2/vET);lineShape=1;strokeColor=default;" vertex="1" parent="1">
          <mxGeometry x="246.78747170236966" y="173.79223375722086" width="12.745522670362789" height="32.405058176394846" as="geometry" />
        </mxCell>
        <mxCell id="7JURMkcKfAs1Fi5uzstL-5" value="" style="shape=stencil(fZbdcgIhDIWfZm8zQAg/17Z9j85U606tdqz9e/tmZ0c0uJ47xP0I5JwEBl59bp8/1kNwn6fj4W39M76ctgM/DCGM++36OJ50NPDjwKvN4bh+PR6+9i/z74/n6ctp9H74nlb4nbmSKZeJCu5vngmZ6jzzNAO7cX8FVKEsBuBKrgKg9oAE8gkCbLeUhEoEQKSUDZDLeWYRKIl8MEDRmHwfyBrBG6Amyu4+kDxxMoB3jhwgYu7TVAsVkFcWCs4CTBEoF4RctKeOxHIf8IXYpikHikAIf+MNUW94AGSSaoAoFIE3AlOyeWU+p2E5S9yfQZcQILVuQOwZdJNoS9Ls3wA5u2XZTIHECqeJ9kDpSaauRiNVcAY1QhdBzeLBli5WazpkSsBLV25uRaqWRyFawTQzRRIQYirJzq5atkBqLfouwqUxLBepthWb10vrWZY6UOAeyKCCtDV625mm9gmUC4Wc3VLJMMIE1BsA2FW9JraVlQB7n3c9oMKhCLEvIM1zBPZ25/umNQ1tVEC2G+fFCC8g398O2hNQuQlVu752DBfA+q0ptnqO5JFmeuIuo9DY7KjY71UxdJV4EntifPWorW++R/dC4t7V3DlIB5cHx2bc7eb3yvX//QNFp+bHDT/+Aw==);lineShape=1;strokeColor=default;" vertex="1" parent="1">
          <mxGeometry x="258.86796084247567" y="151.87531245851915" width="4.672539772115442" height="4.665236216357698" as="geometry" />
        </mxCell>
        <mxCell id="7JURMkcKfAs1Fi5uzstL-6" value="" style="shape=stencil(lVhdUxsxDPw1edXYli3bz5T+D2YIJVNKmBD68e+ra8bXky63wFsI2pws7a7k2/HN6+Pdy36Xwuv5dPy+/3W4Pz/u+MsupcPz4/50OOunHd/u+ObheNp/Ox3fnu8vf7/cTZHTpx/Hn9Mv/L7gulDnCZXCn8s3sVCL/775egE8HZ6XACZOHtDTNqA1CtEChFIHAKaaPUB4G1A7STeAFKhlCOj2DKkTg0O3QKUYAHeqBQCSr1KJJAIBzfZBAiVU1kS9WoCeoUFAtk+obfR+q0pJDKCH0crrAGWOTalnyqBK0qgFC9BnIoAe2nEpaE5hG1EKSfKPqHUbkIXYkqk3qqCuLL6uvVIA/E4quezLVMEZYlvVNVEAZIpp6GXRuQieoBJtJl5FK0BAiYrtWxPY6LlHM/UyLNGKSMptlL+MDi3iM2IqicsnwPg2WDnHR+rIwobW53h+J97lX9UiYb98/m2wdiM+2vzV0BhJn7LNv0U4FNSfrSzVbAT21xn2ZH+A0Nn7xOSvIB9lF/v8I4jnwd65nuqlIB+maBVcKyVgKhpvTUitMgB9sfegOhvfRrwb4spPpJdMstIL6m+hIj4+gvqoG6x+P0G+sasnnjRt2N/ivFi/bnyrHuEKMkbEol8ZTW/PZ+WDoFk81LfgW4X1qU5fEc568WNyGv6An+L9edIj/P3Pxecr/o/75ZYhrWcFy1BUgVVf0AYGUpz1vagoWugmirqS8tgsttYCsZxumTqqkYrGFbWMBWxrtUnsn8B4e3K2pW1Dy9OkQudbDes4+8E0DWIgtDWgdDj5VLjZSi13SA11zmQPzcoulJJWyZZV7S/jJ7gVU29EsKxC0Z4BN1q57NYt5eqnLlB4R17f0MLw4w9eAcPwp+vxqzumXs9AQXV/lurOi6alLujs45H7any34ynh/LsfZxmu3xrfbH0KvPst7jCzzqA9XgF0eFlcZxTDuD5+8Mh6pygIsKqpejJ6LXClaeqPwL2usELXEiCDz7/aeB+gH/6/SXk4PD1dXsQs/+/fvOhXl7c2fPsX);lineShape=1;strokeColor=default;" vertex="1" parent="1">
          <mxGeometry x="230.5447343804476" y="175.5405904434988" width="71.65473205020703" height="29.57622148029293" as="geometry" />
        </mxCell>
        <mxCell id="7JURMkcKfAs1Fi5uzstL-7" value="" style="shape=stencil(lVbbchshDP2afdUAAgTPafofmYlTe+raGcfp5e+r7RpiYe/p5A2vdUA6ko408cPb9ul1MwX3dj4dv29+7Z7P24m/TCHsDtvNaXfW08SPEz+8HE+bb6fj++F5+f36NFvOpx/Hn/MNvxecpxxnUHB/lg9FyIV/X74u9vvd4cq+EgdjL4VSXLf3idg+kPUBBKiU2AASU07rgCCULYAr+bwO4EgxG8B8hVsHqANxcAlylGqLsD9ADCLImUIx9o4yuF8i8WjvgP8lUPKDfQIElUolDP4HkLKaKFn7SAXcX2/4KeQBP971+BrAexIBLxTiAdDr8D4gkrch+EIRvKBtUqrlyFEBQRRHQSxAWWWQ5UAuj4AIaM03MWh3XxJ/v05ldGluPtQIvQ46IFMGL8TaxKEDmDygVQHRutTlYM2joZQyOXB/ylQtqQxLLzOJbX1ProCk3eipw/a1dcqHPWo1Lbs0+oNauTKVOMRbQYa1cby1Fygt2srVSpHH2qKAC98doGULGFJxEcuQF1ikM0A+Ayi+qW3nKMK+EeXQJiGm1kn3qyhRsXKkdXiRj7UJMuiXeDgSYmlp7ZKa4ZiNbhzkKoGMpqaQ2EzX3JxcG7PBZroKVRCDtvrQm3OxIEAaa6n2yXUfoM1oRftqtKytL66MT2QgSFr+ceC1kCCFIZaRpYhobfrZ7RNcj/w4OlUSUCXdjNrqW0Qr9sHGq9sD6ufPLpz/t9fDx3b7stvvl+X4+v9xG9ZPyybNj38B);lineShape=1;strokeColor=default;" vertex="1" parent="1">
          <mxGeometry x="338.7744473108671" y="179.27170058230058" width="10.607891992044188" height="23.958689835860355" as="geometry" />
        </mxCell>
        <mxCell id="7JURMkcKfAs1Fi5uzstL-8" value="" style="shape=stencil(fZbdcgIhDIWfZm8zQAg/17Z9j85U606tdqz9e/tmZ0c0uJ47xP0I5JwEBl59bp8/1kNwn6fj4W39M76ctgM/DCGM++36OJ50NPDjwKvN4bh+PR6+9i/z74/n6ctp9H74nlb4nbmSKZeJCu5vngmZ6jzzNAO7cX8FVKEsBuBKrgKg9oAE8gkCbLeUhEoEQKSUDZDLeWYRKIl8MEDRmHwfyBrBG6Amyu4+kDxxMoB3jhwgYu7TVAsVkFcWCs4CTBEoF4RctKeOxHIf8IXYpikHikAIf+MNUW94AGSSaoAoFIE3AlOyeWU+p2E5S9yfQZcQILVuQOwZdJNoS9Ls3wA5u2XZTIHECqeJ9kDpSaauRiNVcAY1QhdBzeLBli5WazpkSsBLV25uRaqWRyFawTQzRRIQYirJzq5atkBqLfouwqUxLBepthWb10vrWZY6UOAeyKCCtDV625mm9gmUC4Wc3VLJMMIE1BsA2FW9JraVlQB7n3c9oMKhCLEvIM1zBPZ25/umNQ1tVEC2G+fFCC8g398O2hNQuQlVu752DBfA+q0ptnqO5JFmeuIuo9DY7KjY71UxdJV4EntifPWorW++R/dC4t7V3DlIB5cHx2bc7eb3yvX//QNFp+bHDT/+Aw==);lineShape=1;strokeColor=default;" vertex="1" parent="1">
          <mxGeometry x="351.86796084247567" y="145.87531245851915" width="4.672539772115442" height="4.665236216357698" as="geometry" />
        </mxCell>
        <mxCell id="7JURMkcKfAs1Fi5uzstL-9" value="" style="shape=stencil(lVjZUtxADPyafVXNSHM+E/IfVLGErRCWWsj195GzGWPJdqd4W4w0h9QtteYgN6+Pdy/HA4fXt8v56/Hn6f7t8SCfDsyn58fj5fSmvw5ye5Cbh/Pl+OVy/v58f/375W6ynH59O/+YVvh19euVepy8OPz+94VS+Pvh89X+6fS8tE+Us7GPkTpwaIW4WodEtQCHQK1Yh0yh7zvUNA6wcIh136E0KiuHlIGDUBDroLdK+w45UWnWoVGSfYfUqXXjwIEqA4dMxUaJEwUQ1sTEbB00DCCsKVC0mRa9NMh0ipQslHTPgBzayqGNPbfDKiQ2DzlSbsChUbM75DzCsJ3ptNqhUUcOndjmoTCMUi1ULB9KpgbQ2uJqB4yllsZ6w6Hmgd9tBw2rRWtjkgjv0CyWWqUA8qBRclWjaVgRgfpg8FyWAjHKNFON3qEDLE0EcjtEquBI0nyUOo86su2gfLCc7jJK26YDZx+lrnUJgE9rRHAOmhlwaa3V1d2hY05Td4UvBMhp8ZTWDSrIG/vK2hUYoCoFfyBtYBVAVVEjPkKomcy3m+0TxF3w3U1BkcD6kcIKpg3YM8VkidOpgAwLZWffRoPf5g2F6u0RCwrl6s8TAaarr0V63wgg3QZ+F6zMoHbNamXBMcb2tpgqxVDb7BRspZsYBuLZfL4UzwL4Ulbyq5MAPMxCZWGPCqlsrI/6Ga/i02Er0OaU/X0j5IuvD2UImT0+uvgnyBdFl+O7DITv2Fe3foTx1wLq1p9PuBN/V6EnvsCCm238Jz4i4fhB+xktC3sB+IlzOmeHgnuSDEU2O2D5Ph3JQmLSI6jEVa8NVCIVcKSUPOh0xmBUFKNnWdW6BKKqItGluVbK4NKljvlhdigUkeRKg7aLI6ERRCVXtOpDVSBCnkrf7Hbg0Uz2NFqxYdU90RilU5GLUimjXO4NCO4OKq4bYg/7O+ghBZQjxVKyedABAapAGeVhMYIUkDiFtzuSHrKCisSzAFrMXUhcS/A9XL8gUSfsRQhjkSPZqygtCwXwQVZtVod+QdOpKmM3MGtnQdNpXwkXGNVchmyaoTTE9jYb4pge5jxDMpRV409Qpymfa3X26M1Ci2i0OZsjtl3nV9M7Qx2obbLYFIfxhLH7DlSdPcKcyizXFvAcMcmC4O0BHnQMWJ0ngXiqTHHEj1CXqgxy8YxwTlF7N16qEgD4mWSZXT/BFrWYw94BivqybtCsfYFNc9J9lsIVPkhpQJ2SalDYffjh8b/2+uP9lfPh9PR0fSRd/t+/iuqn64uq3P4B);lineShape=1;strokeColor=default;" vertex="1" parent="1">
          <mxGeometry x="348.6325956741073" y="173.8574591098169" width="50.50587618627833" height="42.51683823118208" as="geometry" />
        </mxCell>
        <mxCell id="7JURMkcKfAs1Fi5uzstL-10" value="" style="shape=stencil(7VrLbhw3EPyavRIkm83H2XH+w4DlSIgiGbKcxH/vIhakh83ZknMM4NtqNbUk+1Fd3ZyLvPty/+Hz3SX6L68vz3/e/fPw8fX+Ir9dYnx4ur97eXjFp4u8v8i7T88vd3+8PH99+nj9+/OH/mT/9Nfz3/0X/r3iorhUOyr6b9dvUnL5+s3vV8Djw9MR4F00gOxKuA0I2YUVoNGlRADiWlgBxcVCAMGFvACyOC+3AdW1uD5fndDnU1meL8lVcuTqdD1AxYkzez779Xl8w0wqLqwbqtlVZtLmgqwAdZ55GQdcnVa9q54AmovZ2igTp0l0oVknRLKCqAvGa96lRgB1GH3GUXCZAJJ3uvohiStkSynYFbDJTPwAQFsdB99HtqUdEIehfx7APJ3ghzVYkeHKAWl1XI8u4mkY0a+xFIprJN0AqLoCsmtKAMmVDUCtpK6kFaB8S3lbQfmWiitityQsNGbKH6zkmVmbkzX4QnWBRWuztBfmT5wC1NucRmgUEq0AmC0h+IRsCQBTfZAPrJgAoOsZOi3wLdU1HxC/ORIA0mVjDc+2JJa9tQ3fnwOSrW8ZsURCQ/NIyMmtcVS8c8DkuQkALZCcBsDkdE4uMcdFW+K0UjKGlZpas1YGQIpuwoQVXd0yDgUgME+3IXQmAFYiZs3TiDNaMxUmMKKsW4owNNkSSqDlJaH1AX6taz6UkeTnz6vl4kSLbmmjns0NUaFRxYbqTNjz5yG8onnek/00FB81z0eyn6Y27EBIJBHatp8yNMH587CPIWGlnBr8POCRIwkCS5Q1N2Wy5q0z1DU3pVF527JNBJQK6gUZqXtQ6EzSt2D1Z/EcgLBZ/QbKS0xyt40jEz1DrTY3e26w0M62fALAkhkS28hJAAI7A3Ix2jMEnm0WEEcxOgeAtpv1A1PpdVr9oNKVtUpxKOYJyNxKsq2QnLJmKW21SriV1OZD5qqklsEpB0AgYq+3a2IBrNNAtFaxZ6iMBCC8Vk9DMyjZEjIuGj8UKus7wKzAZUzzlpdQjJg6xKHbatYibxWHsvXdhYVGGaLlkHHCwltHwT8AWL1F8OUtRWk+iBVKRWi31BNIrVlZ49BTdHNcZNEaLbciNCgv/WeAWE93Scwcp7bTgEhm2g2elnUF9E/00Fu39KPbv1mBjDpEH0u2hATyqx+6OuQ1zlipix9GAsHyUh8EMT/kMbOZgDjaoXNA2ABCAaUMrj72xeQMSBcx8mcSzzlgCoVDi8joHvXGpKhkSmSoN8YPaBFZToOrxfSUlTIfqoE33ZIOHXsO2DpvnIp2S7v8QV1lTWixc6LqB9v+ZE8JWhA2uqqb5lOacWnOMA/ihE5A1Ip1GJop4z7OM02o0HYJgWBpBnTPB3ymsL8xn+gAMzLhE5BfA74B+DXg+18M+KKZgCilGZzBzOtQdtkZYFbTi/akZSsU24Arp/u0dbv5jYzzdmgCIisEIMXe55RGL7BkTjEmGRfavO7XM70lJ56Gm0xBaYlebfTJlgEUKqUR/SY0Whs3hecAGQpvhrfn06LstGwrkJwOdrjceL+xjXK64CK/7+0NVh+vkVDdrlr7TIOExSYooRpo3Nkogoxgo+5s70GROWxw3YZAmKlZ6N0y1GnZhvVC6jNiyNC8zKi6FaXGZajPbCAIgBlDA8BYG4Ro+wYASFBEsZwqSg8dky23ALDhAQBGukERZ7YltRfqMGtmZtXtIrSOenqTXgzNNxpKfQUTS4HmMgBxTTbEUuRX3jb4+OwdgLDdULD6fP6uBVvh7Zcz8OHHqx2fHh4fr2+GHP9vXwXBV9fXSOT9dw==);lineShape=1;strokeColor=default;" vertex="1" parent="1">
          <mxGeometry x="150.13561579869554" y="248.17979177697248" width="66.84441412784042" height="44.512033037963874" as="geometry" />
        </mxCell>
        <mxCell id="7JURMkcKfAs1Fi5uzstL-11" value="" style="shape=stencil(lVnLctw2EPyavU5hMHieHec/XGU5UkWRXLKS2H+fRrbAXQzJTnyjKPQC8+rpAS/24dvjp68Plxi+vb+9/v7w99Pn98eL/XKJ8enl8eHt6R1PF/t4sQ9fXt8efnt7/fPl8/Xvr5/GyvH0x+tf4xe+X3FRShugGH5cX5QgPf775tfr+uenl7v1Wdpufcrn6zVITgsgN1GygRbRvAJMWieALtpXgEps5wDYnOMCSE2KEUCTUFeASUjnADOx1UtWJSkBYAddASqd7JBUyurWWKQSG1KSuNoQVXIhgCxpBWiSznbAkbIHFBI4+KS5HbIEsoMl0bDaEKQRLyFw3RmNN8RoODGUNQ4mORCAia47IJRG6gEnTqsNyKVIdlCkxurWtKXjMSDNRNjqodJsVdTDukNJ1K2o6bbaUEEanARcLtUqxkjAZqpNQFMx5qXqk6/FuecZCehaog1Fy1KjehsA6IRmLE4nboA89/yfJNCQjgSQ9l7a8vcY0HZHQqQJL4F6XcUhDokcCamW1jjUPDvMIaDg99aKq1vHOAbAxJW9S6b1UNUXUO4SCS+NEztAkkSOVPsM0wYIk54PAcjNshoNemY9Dplj65GQLIyXWvU9DkTGkq91vwO4sJPU6EGq49YwG/ExIPr0BlMxqgQgrtmqSisOgLa6tc8Xx+shLFYnNYmElToSzfGeRGZAmXl2W8/6W6+eiPGCebR5EdBmRz1e332tgZgryVMA+uogEHMgaTcAu5bOhA8AZXUpmJzpGNjsYgz9V9kO1QcZwkeZ0UVy84DG0i77MA8AsyF5PQlAYIlnXpbA6Mx2iL6a4VbGF6M4XaTRrFjtxKniN0CUyqu5OECYHHVmtG+4UpkJaRbLrXoSq57sM6lOgjpLJE1uvbH1bSqW2/mNV2c07yDWzQFo6kPA+EtD8AQ2JDqx4ecRg8NWK+AmyjG7MFienHCWF64+U6QyqetOctc5DJ31QnUKOk7mPAYUXwzQQax5QgC0dYcSqeqBxHA7QAcxfVuT32HoIOJWyC43ydTChVie9X6nDTspOEi96tot4sDUZ/MVgVBWpj7TFKcbIM9kOQaEOXttAIhwYgN0mivq0cHYzFq91LurqWOEzhH1bgs2IUKoteyNYH5Ft6luh0rHAEWuuUAUej0BIjLzgWBuwlju3Grzzck1lBszULNsZLU5bt4Nb2wsMZ95qCfWrMyHoDTKSdmz5CgOVv+7kSTTPN2P6AkqhVAYIuayzjo9kWZPw5gwWPlr28kkNHQCQJq64hxhYQCbtxBbrTVJJGo4QHFyNdBZ0naDG5oRu9crvtICHXlS8BqDc0UyX5hhtq7j9dAw6tZ3Yu/gx529LK1tisbbBMYuhtBX3QQzdCrJuqw7cW60Nae+u4oNlE1RJy6JEERjtzDqRxjoEUa/+D2nhBOnX3QEf8MNPuP3nnENc94Y/BiQfPXnTue20ULWI4HAmOIZlegYL9F5Afxiqw2l0lq4id8N0CkHF78eColdSpq/v8D6zK56fc/BeibZ1JPRUGyMUP2tEyQcY7vg8xT+YeQV/PULehrLiTBvme8Cxq6cdqMFFCXr+WEngRO9ZQvztNt6o/4PB5qcUYvOce6uBAq7ct7Zq/NT18n6n/s099/r8XD7Dvjl6fn5+hnx/v/+uyFeXb852sd/AA==);lineShape=1;strokeColor=default;" vertex="1" parent="1">
          <mxGeometry x="269.83373420475823" y="252.01130979644518" width="76.20426121564788" height="40.74762435063735" as="geometry" />
        </mxCell>
        <mxCell id="7JURMkcKfAs1Fi5uzstL-12" value="" style="shape=stencil(lZ1J0tzGEYVPwy0CNVetZfkeihBlMSyLCkrycHtnmoHuxkv0B3NH/UI2asjx5YAP5bvff/7ht48f8v77H18+//3jvz79+MfPH8pfPuT86defP3759If960P5/kP57qfPXz7+7cvnP3/98et///aDP+n/+sfnf/ov/PsrXd7K7kR5/8/XP5R9m+N/f/nr1+d/+fTr6fmxzs/bX/r758tW5vn5vu2Fnm/y/Noq/v5Mp+dr2hY8X7c6zs83XH/dVjs/P7cCz7etntff9m1Ven728/MF19+3XM/P962k98+PrZ7vq81t7e+ft92df7+nY0eXzy+9r243mN8/n9K2DyUYwHApb7MowYQTTXWb+ze9oR8c8EJQaA/zYMkHwUOMrgnWsYAHgUkZnGpOWzqztV0bimU+zuSFLyoRVD3WVre8gKBvXTg1I+dFVjJRKHBxxkvlzKsmawMITFXl8x6qbbohwRJtYdIGmy7pWMCLemlwcUYwRT/aHmhJUaGagqRNp600Jch00+vgnJclJbqHuTXRkTu/YWz9LHE1bxk2bbwkWqPWrRFB27pcXEc1ZuzdZQ8P7romKMc1PbjVrpKWlPWmTYASy7Qwn4noJAEyJSBLWscxXBPsuiTTS5U2vW/tvKTetgSazwhUe49D277bQz7voXcUIDvWLuq+okG0m95L2DSxtxn8rMdaaEkj2HQTUVrS0iW1GydpP079hVvJazCCIfLwkMF3WkPuoT48m7eKTGTadCE5bsbe502b50anZJqviSIzKSfdWrb9fEr2F7pp+70sujWh62CatJ/VfamHLnxLcL6HMtBdcl3d9FhJGZfgUJrDSqqyRI91oKq0Q1xnmTZuRZfbPLzgOgx+wy6qchxX+X+yholovmG+M2uYEkg3hl0IKtvp4AmY5ivEGkZwvrixbxW0txM0fQMSlEO+XvZAHpkRqCttdpruoao82D0sekM7zuTlpju9wTSp6NaGrrQRyLEat5J9KCMsaT9crmuCqQ6W+RrkOpiey6KMWYDMndqDqiQlUPfgwvUt0RuShpWuKmEPtmJR924xQOLccT4TmNVLRNCOLT4ITAmAxNmpp7PWMMvd6A1DlYD5BplOaR325oUAg/U9bJrZuyXdtB3rDgLUgs9XKsZxTiC8NPkNxkvia2T0W40giQXiCMWOVU3WwvjBw7zzsbaHF/iOQDwB0xoUTxtrlODz0SnZFrvYh0dk94691T40tHEmQKUHAjqlHJaU0dewNyQ51omug7mE4pyYYUet0Y5w+0W34pJ6iNgnMp9dXDqfkh80EUwFyOwYKt3DOmzmq0cGp+RbFJmeCCKYiDYh6EyQgxvaUFW2EuyD3T1pjcfvveilQm/o6ko/kb9rgqEunKlKCjhMIAWZdXUPF9d3RU5Me1Pw2oNXaUE/ElQNyzIHTUZQk266wU33AEc7/H7zBrHTBQNwIxAn0ZgP3/AQlxfnhAI/O1YBBk1T4SmlELx2xNSfYOmLQSGt0UM8bSKViVuXnpIxPHkzxt4aNLFn7BFPQKVJGbeums/CgRuZFlTaAg5CdFvVgGNkvGlHiM/HOtphYt7pJQmPx0Dt3YIbOneMslpWkzULhjQt6x5mR1T64g0LM1hOcGaNlRDncxz9/IZVWRkHF261W4Kz2V35CMnfmSzB7uc8pPzdHsQjm4zoPhGxl5smZ914KUs83TA7YAT1vOmRWICMWwNW2VmARM24R0abDhJnHhmF+C7Tosjqsci3WkN8vhtvpmtI40gi3cNQZ/0Gu7ctyk2bg4UyvVS3Fs65un0Qo8gArVmgHsJjtNMxS5MwpOmPLO7DE5j8hqYgQu7oSveAVT5TetcEM7zBRIpch5CPywmTkGZvhL09wQBLGkWBkJxQGRuBRFmet4GbHgHctGMlrTFCQUFhuGgEFM4idgKZTQutkCIk3NuPNThYFJbZxUlYZkETLclYI4XMKwVNT8X4EvhRSOPsLbCdxb/ErVX9JdOFhOiaiKpH1g886J0S0HzcZFd6V9awvzRSlesiH9fIZK1QurAjzufFGYGAIkVXZLLphZ5xDzifGQACaO2mJTxuFZPBxksr1AlghDIVzKk3S1qKGdeCSxqPe30QGHuTiCYFmU2mUfNlRR0sxF9MIKdUCgbgppcUREjorI96COSLyULdWpW9Pa9PxxrgIjNZqO6bqsrMfuvomppKC3nJ45HzKaVHeviaYGkuK2UsFjK3VsKyR7rg+vmk1Re2JyrYysp6FQOgGfzohJrb/HhBc3dMMs0Qt+6HJr9+fhwoz4NP756XisV+lHq8W4+A/ClhoDG7xm/p4URcEwTo1yvKgOmMQHmICztmQH1MDnAPRasockO827hIcycD5cAIcvCTKt1b0nDMFBgKQqhxKFyqaQRaHzDxDSbLEuWamqd0zphax1cz+hhGoHh3Y8sz1LHycIz2MDRhVBcmKkYoWWg3OrUp+ublL7SkdpW9J0MS6jTMr6FgyWEn0ZEVmc/3MPQNlDCyY81nXnJPjGKfeWjpFz8JDfrSCrXG+Z+ZLkJ7gidMRNWLmQgImtbQ0hHOh84WUuXpgKbe6VYtXlwYaJi2l+RjGUeC55pgKmt4QQy9YYWMa0atsUINnFl00ktGML4pa7ySFs27n0QEWZErU/eUvbc3qH0YGI6tBzj3umkgsHvQOJqTLTNoPrtpSjMbLwkmU3cube/KGsbeBPLPoPkqA4JGoNX2O2LFThBqr9Dbi/hexeJ2d5dCYTi6DjOE9h0jRGMNkenGBckrFGu1jkZxlcOHf1GVVPOzmrpwdkrkwq0eTumRg31HMKQGLqEFWuOwmS+sQaWFRiD+kteE0ikNjRCNgKzomsqtTkCbXupg1YWIyQqVIG3HRIURiNZw+Jo03zri8ldvhvegBAW9mRUwGe/QIVUZEtk35ZHxWI29ycbFizMC0hqRNVrDytnIfO6ckBKI7F0xFXIhQIWN4pXfSoHf6sHBeiSe3xEo1LUjom6bVlBzR4NiBBo/LIR+7aa1OGVhUYQRzBAO4BtCDOR7YAFSBHFHcHmtwHwJQ8u07wH7zWh3XUaDUFMB2bcTjNBfNe8MhHBf52z8aqFTIrHTV0LzRmIjd1kkTW/YQzNgRgjRfYekBARHu3ufwx4IFGiak+qMzM6qqY3GjUDzqlgdvcQcdGXhiCMgdiYQGNNkhcjqxIqCGXIhtWF7yAzFiDVjntmOVYKgwlURRqBZr8reegudwJz1mqG1wttqiOARX7wEQeRWGsEMyURk76m+g5eokdbY1bLnxEYuHyncB8HO7kxVhDwntllVkyeZ85urakWyHSsGo6GfpHDU5OFuiC0JMzbNJ3a3NERz7B60BGHcgQISl3lJP8VlS32HmjDMmleFrRj5dfV0LXptrFt7CCCoFGRWBWcaF1/NUN7VbpIbSTWft0CSTO8q070gquYIrTSwc1mRp5hCXR7ppVGVl54JzGuCojJtbyDH1ZOJofacYksnCI1AiAHnULi0MICwPWgDOze7jqIi6kgI4ac1TH6Y6M2MFmzcTcq1XXSLY36zh4CadauD96LIuMzO05WhW5ywFmNvicCfTWDvYGnFTxMm10cocvBKJ07TaBk2N2/MpJrvLkUYWlE9Z8kunLjSabAbGgqXUrtLyImTmDLnCIsW/aQda9rcIzuf0sAAJeZ1efCIg6FS93eXN9ZaFs4lFH2eI127Mxk6kLjGeyZNHCeuXp6hTS9NFucZ+I4zNEagFXaFK+yGFvL6QBhSekORUJNOVNyxBXrnfGKo0SiF60yaGh9zxgh2NE0vN+31oHRKJdT7cGZgFAUcvGmI0oOhirw2lIaRVMM8e9iuCa5aGOhY+9KkUato031ygxBwyr+HeMmdMSJoWqjVbzpDSsi6NiwQ6iFTZgR00y2AUf0xgemaIIhob4gfPNGCFw+UfFzvDOl6rNiFOkPPNA9/8PR7yJ/ctFYpQUF7GOsQG2NRPV8UkGLhYtGO5jqZNQKe5iJKm+5hNFhBC2ryoHNyErKG+f2CCfokHjrWpXld7wYmVRlycTd16kbQg/eGHmhEKCoK0AhjDTJL3AhDafJAG2enJF50nhgZ28VJSZjZOJoA07sWLvrACeLWpqxRGBPsAab00SKk7ou2Gt4MmvLWFDFZiTedtCrnJl3e95Cs4A7/FobHVa6keA5BezGK2LE2wwiljpv2tlVRZDfKOFQvu7pnAoE0+uD++65WdHBE9pwI+CAobBRDV/ZgWKZ1bR/2stib3sTzxU02KK1qvmVOTEAagXgCK7Fhr5qxXFwo5A0L5yWtibC9Z6I1hONa2LoU2FzcH1ZD6ng1jHTNaAq73jQnOoHcHAP9viRp4WSIooaK6smFoXWpJnvWWF9fxK4X8cRRrgnC+MVx05GZ1IyOhNhSC9q430hQSEuZUSIYvoWiGTcZLBA6WYdHr/rMjfMe7C+UrHAIMBTNEOZw0Wt4M311KrZUuRDOtxhn95AZ3QM+tri9ZVdNVjomgj2mCc2JhC258x0SX4QieBY3gALYzbiH6nAemddWSA9yRW8Ls3s8pcNWUfCxwoVwLeYTO7r3Jg8teFhod4t2evjcTLIoIXPso3iIvcNNV84n+qySMMuKxgnV6JJNdGdqSHH6eC16w9D8idfm8cwYuYfGnm4NgxC835fM7lUlBY6mqheTdSoZxRqyG1yxVeMc6YwWyCfrBICJ3Bkj0OLWxp7ACBBWxuq/GtLlhfGiOMDLRJQkzt8QppGT5nNmllBxYW1eDSVehRtdaw/twBk70Iw1tBe98cCigG76zEkS0YBu+kQXWlLo7fGbpiWFmcS1Y/bbFGMJ8A8Z9hKGGPuoEBq0ubRg3fuHiWAqytx4dk8Zivb3nadaxp6SjDBcCbCDjwijU2pam+dDKmleY9VUs/mtZLJ8XPX5HkZB9n6OEXwQNMS83LOQJTGOnUPR2c2gzSfC9XpKoL0dTpKLq3dvkEaazmPDn7muF4NyMwBYyzYbViH4FAMhYAfLu4VDcSuO8kw6n+7GWS9Z8wmO0N7MSg+AK40T8kxUGLVA7k+pirWUm4nyPTi6N/fQQrvrQKS8hPKRmybFEhKvPgiQhucG6KTeDmLWEZJcevFs/XkJ/G7UjJbEV6xdMvaWhqY2MPWaQ662M3jvILTks7kOzmfWS8Q+sPTCE/BhYjC+IQBMgwfPptD8MNgCpaEl8SOh9k7Bq+zsrKeQVHyOCnlHINMUO7dMPUs5XnANcqXTDJlU/saKHatOFy3ot+aY3OVjzSEAv/Huc7poXSPUIefQOMAV8Tkm5BIalFyV+QoHTbnrKbm2pU1HZ51rWvIMUAvLQ7TTPs+XbFwYz3vTLGoL0BqSxZP9q6aajADnvffQJp8xk+qzpuVY+SsRpYU4biK4WcI40srd1o71SG6KP9ljjKBIYkf2LmHeSl04SK3k0DeQ2NcIU/waz7LyAduh7QsJ4tRjnsGag3PiE4noDWE60E3/Rg69D73iEDLTfHEoHzlYKXy95jnd6p3Jkhxh53EFKWi+znXSKYW5+wsLelOwD/4GKp4Lo6EX6uIwE78PHhAWnu+c+tIigc7fxgmph84f3ykXn3AhUxInYXdm05CouBHNMKYxYegTOrF83hq5JBdpDQp8kuqimrG0K3wXqzC/xe8RDFTwe+jwqOio7rr+wsXgu+ZyC3cBhwZDT0/w73d9npKgYWR+4WbvPfghO8rLfiBTLzafcM9dNVZemKkLny3I3EoeZvv478P5hAnQ7hXh76+Q4cIvMIWZHju7mt/8Fcy75+0fz09u/vTpl1++frHz9f/rJzrtT18/71m+/y8=);lineShape=1;strokeColor=default;" vertex="1" parent="1">
          <mxGeometry x="316.7752147500523" y="221.55538104490734" width="186.19344346334492" height="105.50359825452745" as="geometry" />
        </mxCell>
        <mxCell id="7JURMkcKfAs1Fi5uzstL-13" value="" style="shape=stencil(lZbBbuMwDES/xteBREqUdO62/1Gg6cZoNinStLv9+9Jr2A0Fh0BviuMnWcPhSAPfve0fX3cDhbfL+fSy+zs+XfYD/xqIxuN+dx4vOhr4fuC759N59/t8ej8+zb9fH6c3p9Gf08c0w7+ZKwSmiaLwOT+JBMn/nzzMwGE8XgGVEasFKqjdBlpEswAV1OAABaUZIIVlzU0ghoAQDJETorOJVsF2CdFNJAfQXVuZakArjkwJJRlAdQjxNlD0izuggB1ACClaoIEcIIdF9hUQZLoNqOzZrlAbslM5VutYlUpFcwB1QhNbh4zKLhDsJ+UIEQdoqLbSrO5zABZQsXbNyxTbKuVFk7UhymLH7ToIxO5BWy56la5I1hoxojj2Lq03X8xojr21rmwBSiBHJXUOsZVVVXK8pN4UmwKpIfkAZ2sNhjjWaBlkgSJ+i5bFaqu9K4KjUlHArqBrihNMImBrb91VcLyksZWt+TQEmqPSBNSfACkhdfH9nZ7bDbE64WoTnl3VOl1sqExekqk5u2DSQnhmqhDrVg1jL1u57x9pS/5vvh/6js4F2X2/O340E8g7sPrUYz1enPllmW3tTkJw9JmOcBt6cT0stksW+lZIaE6vcejbv/eQDr6vHM/j4TDfWK7/768o+mi+3vD9Fw==);lineShape=1;strokeColor=default;" vertex="1" parent="1">
          <mxGeometry x="512.6831151370086" y="269.774401631568" width="5.463897162267585" height="4.545723832133035" as="geometry" />
        </mxCell>
        <mxCell id="7JURMkcKfAs1Fi5uzstL-14" value="" style="shape=stencil(lVfZbttADPwavRK7yz2f0/Q/AsSphbp24Dg9/r4UFMkmZY+gN1keUjxmltyOnz72L++7LriPy/n0c/enf73sO/7WhdAf97tzf5Gnjp87fno7nXc/zqfP4+v4+/1lQA5Pv06/Bw9/R7tI1Q9Gwf0bX7REPL75PuIP/fEGz1SbxjvK5TE+kIsKX5lcfowXb1nhS6QC/DtyTuFzIo/xOp4UiQPCh6TwsVKKEK/rEwO1BvFV4bms+dfxcyDPj/GJoq6ndISBfx8o6YQ9U0nAQOqnO5AoOYDPVHSFxD9ogPydtH+cMIs7XSFHDRA6Zops8IhAedEBoRTwXyQe6z+C+Kt0TDPCUwT1bJGC6TBVhG/kNT7Cfgn+S9+zwuABIefHVztnxZMD/KnF1qdRAvUpedLHXB85M0ACmSeBzwaePIgoNoppYQAoynnq0E1ICdRokIg5dYnBIeELNZ1zoQo4KpqMtmcexOOTxc+ivh+/o6rjCZSRJhentJ9Ie78DYZLUVTMM8ClRtniHKNEmd1d8QJr0Nl9PDhCiecvpMI2F+/hq82V4Znm3KKiobrMBUr2IXGcgHPGgBSJjsxhIDojTUlMz6Vcm2WCgdbwyKgcDnfPKLB4MNg37gRc6h5VtQgzapnVFDILuw8o+VJoNaWXhKgvurWx0pZAzKyBeGeXENjuXsCuCshZpk+5DK3BG5WrZLYpCX8jeDlkZcwF8IckUz9agALbGZNeiGw0+miKpbbKQyep5S1DD6hG2pC27X9tU2Lqxc8mydYUaW68r63h5uN6N3vrDYbxa3f5v71LyaryH8fN/);lineShape=1;strokeColor=default;" vertex="1" parent="1">
          <mxGeometry x="511.507442768366" y="207.65894890850984" width="6.087114166162792" height="46.52477149324545" as="geometry" />
        </mxCell>
      </root>
    </mxGraphModel>
  </diagram>
</mxfile>
